<svg id="Capa_1" data-name="Capa 1" xmlns="http://www.w3.org/2000/svg" viewBox="0 0 490.4 490.4"><defs><style>.cls-1{fill:#fff;}</style></defs><title>cancel</title><path class="cls-1" d="M245.2,490.4c135.2,0,245.2-110,245.2-245.2S380.4,0,245.2,0,0,110,0,245.2,110,490.4,245.2,490.4Zm0-465.9c121.7,0,220.7,99,220.7,220.7s-99,220.7-220.7,220.7S24.5,366.9,24.5,245.2,123.5,24.5,245.2,24.5Z"/><path class="cls-1" d="M180.3,310.1a12.3,12.3,0,0,0,17.4,0l47.6-47.6,47.6,47.6a12.3,12.3,0,1,0,17.4-17.3l-47.8-47.6,47.6-47.6a12.2,12.2,0,1,0-17.3-17.3l-47.6,47.6-47.6-47.6a12.2,12.2,0,1,0-17.3,17.3l47.6,47.6-47.6,47.6A12.2,12.2,0,0,0,180.3,310.1Z"/></svg>