<svg id="Capa_1" data-name="Capa 1" xmlns="http://www.w3.org/2000/svg" viewBox="0 0 431.8 314.5"><defs><style>.cls-1{fill:white;}</style></defs><title>car</title><path class="cls-1" d="M422.4,151.9H390.8a9.7,9.7,0,0,0-6.5,2.6l-6.8,6.5c-11.4-26.4-27.7-52.4-49.8-79.4a62.3,62.3,0,0,0-48.4-23H152.5a62.3,62.3,0,0,0-48.4,23c-22.8,27.8-38.8,53.3-49.9,79.3l-6.7-6.4a9.7,9.7,0,0,0-6.5-2.6H9.4A9.4,9.4,0,0,0,0,161.3v21.6a9.3,9.3,0,0,0,8.8,9.4l32.5,2c-4.9,14.4-8.7,35.8-8.7,66,0,26.2,5.2,43.4,14.3,54.6v50.4a7.8,7.8,0,0,0,7.8,7.9H90.8a7.8,7.8,0,0,0,7.8-7.9V334H333.2v31.3a7.8,7.8,0,0,0,7.8,7.9h36.1a7.8,7.8,0,0,0,7.8-7.9V314.9c9.1-11.2,14.3-28.4,14.3-54.6,0-30.2-3.8-51.6-8.7-66l32.5-2a9.3,9.3,0,0,0,8.8-9.4V161.3A9.4,9.4,0,0,0,422.4,151.9ZM130.8,103.4a28.1,28.1,0,0,1,21.7-10.2H279.3A28.1,28.1,0,0,1,301,103.4c15.4,18.9,27.6,37,37.1,55H93.5C102.7,140.8,115,122.8,130.8,103.4ZM104.2,295.7c-18,0-32.5-5.9-32.5-20.1s5.3-25.7,23.2-25.7,41.7,11.5,41.7,25.7S122.1,295.7,104.2,295.7Zm145.7-3h-68a18.6,18.6,0,0,1-18.6-18.6,5.2,5.2,0,0,1,5.2-5.2h94.8a5.2,5.2,0,0,1,5.2,5.2A18.6,18.6,0,0,1,249.9,292.7Zm77.7,3c-17.9,0-32.4-5.9-32.4-20.1s23.8-25.7,41.7-25.7,23.2,11.5,23.2,25.7S345.6,295.7,327.6,295.7Z" transform="translate(0 -58.6)"/></svg>