<svg id="Capa_1" data-name="Capa 1" xmlns="http://www.w3.org/2000/svg" viewBox="0 0 512 512"><defs><style>.cls-1{fill:#f26522;}</style></defs><title>help-orange</title><path class="cls-1" d="M248.2,343.2a26.8,26.8,0,0,0-26.5,26.9c0,14.3,11.5,26.8,26.5,26.8a26.9,26.9,0,0,0,0-53.7Z"/><path class="cls-1" d="M252.7,140c-47.1,0-68.7,27.9-68.7,46.7,0,13.6,11.5,19.9,20.9,19.9,18.9,0,11.2-26.9,46.7-26.9,17.5,0,31.4,7.7,31.4,23.7,0,18.9-19.5,29.7-31,39.4s-23.4,23-23.4,53c0,18.1,4.9,23.4,19.2,23.4,17.1,0,20.6-7.7,20.6-14.3,0-18.1.3-28.6,19.5-43.6,9.4-7.3,39-31,39-63.8S297.3,140,252.7,140Z"/><path class="cls-1" d="M256,0C114.5,0,0,114.5,0,256V492a20.1,20.1,0,0,0,20,20H256c141.5,0,256-114.5,256-256S397.5,0,256,0Zm0,472H40V256A216,216,0,1,1,256,472Z"/></svg>