<?xml version="1.0" encoding="utf-8"?>
<!-- Generator: Adobe Illustrator 23.0.1, SVG Export Plug-In . SVG Version: 6.00 Build 0)  -->
<svg version="1.1" id="Calque_1" xmlns="http://www.w3.org/2000/svg" xmlns:xlink="http://www.w3.org/1999/xlink" x="0" y="0"
	 viewBox="0 0 512 512" style="enable-background:new 0 0 512 512;" xml:space="preserve">
<style type="text/css">
	.st0{fill:#FFFFFF;}
</style>
<g>
	<g>
		<path class="st0" d="M338.6,136.1c-23.6-22.7-54.6-34.4-87.4-33.2c-62.9,2.5-114.2,55.7-114.4,118.7c-0.1,27.9,9.7,55.1,27.6,76.5
			c25.8,31,40,70.1,40,110.2c0,0-2.7,18.4,10.4,18.4h82.4c13.4,0,10.4-18.4,10.4-18.4c0-39.2,14.4-78,41.7-112.2
			c16.9-21.3,25.9-46.9,25.9-74.1C375.2,189.3,362.2,158.7,338.6,136.1L338.6,136.1z M333,283.1c-29.7,37.2-45.6,79.6-46.2,122.8
			h-61.6c-0.6-44.1-16.4-87-44.8-121.1c-14.7-17.7-22.8-40.1-22.7-63.1c0.2-52,42.5-95.9,94.4-98c27.1-1,52.7,8.7,72.1,27.4
			c19.5,18.7,30.2,43.9,30.2,70.9C354.3,244.5,347,265.6,333,283.1z"/>
		<path class="st0" d="M393.2,67.8c-4.1-4.1-10.7-4.1-14.7,0l-25.4,25.4c-4.1,4.1-4.1,10.7,0,14.7s10.7,4.1,14.7,0l25.4-25.4
			C397.3,78.5,397.3,71.9,393.2,67.8z"/>
		<path class="st0" d="M297.6,440.9h-83.2c-5.8,0-10.4,4.7-10.4,10.4c0,5.8,4.7,10.4,10.4,10.4h83.2c5.8,0,10.4-4.7,10.4-10.4
			C308,445.6,303.3,440.9,297.6,440.9z"/>
		<path class="st0" d="M281.9,480.1h-51.7c-5.8,0-10.4,4.7-10.4,10.4c0,5.8,4.7,10.4,10.4,10.4h51.7c5.8,0,10.4-4.7,10.4-10.4
			C292.3,484.8,287.6,480.1,281.9,480.1z"/>
		<path class="st0" d="M256,67.7c5.8,0,10.4-4.7,10.4-10.4V21.4c0-5.8-4.7-10.4-10.4-10.4s-10.4,4.7-10.4,10.4v35.9
			C245.6,63.1,250.2,67.7,256,67.7z"/>
		<path class="st0" d="M158.9,108c4.1-4.1,4.1-10.7,0-14.7l-25.4-25.4c-4.1-4.1-10.7-4.1-14.7,0s-4.1,10.7,0,14.7l25.4,25.4
			C148.3,112,154.9,112,158.9,108z"/>
		<path class="st0" d="M439.6,194.6h-35.9c-5.8,0-10.4,4.7-10.4,10.4s4.7,10.4,10.4,10.4h35.9c5.8,0,10.4-4.7,10.4-10.4
			S445.3,194.6,439.6,194.6z"/>
		<path class="st0" d="M108.3,194.6H72.4c-5.8,0-10.4,4.7-10.4,10.4s4.7,10.4,10.4,10.4h35.9c5.8,0,10.4-4.7,10.4-10.4
			S114.1,194.6,108.3,194.6z"/>
	</g>
</g>
</svg>
