<svg id="Calque_1" data-name="Calque 1" xmlns="http://www.w3.org/2000/svg" viewBox="0 0 388 489.9"><defs><style>.cls-1{fill:#f26522;}</style></defs><title>light-bulb-orange</title><path class="cls-1" d="M338.6,136.1a118.6,118.6,0,0,0-87.4-33.2c-62.9,2.5-114.2,55.7-114.4,118.7a118.8,118.8,0,0,0,27.6,76.5,172.6,172.6,0,0,1,40,110.2s-2.7,18.4,10.4,18.4h82.4c13.4,0,10.4-18.4,10.4-18.4,0-39.2,14.4-78,41.7-112.2a119,119,0,0,0-10.7-160Zm-5.6,147c-29.7,37.2-45.6,79.6-46.2,122.8H225.2a193.7,193.7,0,0,0-44.8-121.1,98.3,98.3,0,0,1-22.7-63.1c.2-52,42.5-95.9,94.4-98A98.3,98.3,0,0,1,333,283.1Z" transform="translate(-62 -11)"/><path class="cls-1" d="M393.2,67.8a10.3,10.3,0,0,0-14.7,0L353.1,93.2a10.4,10.4,0,0,0,14.7,14.7l25.4-25.4A10.3,10.3,0,0,0,393.2,67.8Z" transform="translate(-62 -11)"/><path class="cls-1" d="M297.6,440.9H214.4a10.4,10.4,0,1,0,0,20.8h83.2a10.4,10.4,0,0,0,0-20.8Z" transform="translate(-62 -11)"/><path class="cls-1" d="M281.9,480.1H230.2a10.4,10.4,0,0,0,0,20.8h51.7a10.4,10.4,0,1,0,0-20.8Z" transform="translate(-62 -11)"/><path class="cls-1" d="M256,67.7a10.4,10.4,0,0,0,10.4-10.4V21.4a10.4,10.4,0,1,0-20.8,0V57.3A10.3,10.3,0,0,0,256,67.7Z" transform="translate(-62 -11)"/><path class="cls-1" d="M158.9,108a10.3,10.3,0,0,0,0-14.7L133.5,67.9a10.4,10.4,0,0,0-14.7,14.7L144.2,108A10.5,10.5,0,0,0,158.9,108Z" transform="translate(-62 -11)"/><path class="cls-1" d="M439.6,194.6H403.7a10.4,10.4,0,1,0,0,20.8h35.9a10.4,10.4,0,0,0,0-20.8Z" transform="translate(-62 -11)"/><path class="cls-1" d="M108.3,194.6H72.4a10.4,10.4,0,1,0,0,20.8h35.9a10.4,10.4,0,1,0,0-20.8Z" transform="translate(-62 -11)"/></svg>