<svg id="Calque_1" data-name="Calque 1" xmlns="http://www.w3.org/2000/svg" viewBox="0 0 186.6 333.2"><defs><style>.cls-1{fill:#0036a3;}.cls-2{fill:#fff;}.cls-3{fill:#ffd633;}</style></defs><title>plaque_euro</title><path class="cls-1" d="M218,8.1V341.2H44.8a13.3,13.3,0,0,1-13.4-13.3V21.4A13.4,13.4,0,0,1,44.8,8.1Z" transform="translate(-31.4 -8.1)"/><path class="cls-2" d="M116.4,252v22.2h30.2v12.3H116.4v32.7H101.1V239.3h47.2V252Z" transform="translate(-31.4 -8.1)"/><polygon class="cls-3" points="93.3 33 95.6 40.1 103.1 40.1 97 44.5 99.4 51.6 93.3 47.2 87.2 51.6 89.5 44.5 83.5 40.1 91 40.1 93.3 33"/><polygon class="cls-3" points="124.6 39.6 126.9 46.9 134.4 46.9 128.4 51.4 130.7 58.7 124.6 54.2 118.6 58.7 120.9 51.4 114.9 46.9 122.3 46.9 124.6 39.6"/><polygon class="cls-3" points="62.2 147.5 64.5 154.8 72 154.8 66 159.3 68.3 166.7 62.2 162.1 56.2 166.7 58.5 159.3 52.5 154.8 59.9 154.8 62.2 147.5"/><polygon class="cls-3" points="148.8 63.6 151.1 71 158.4 71 152.5 75.6 154.8 83.1 148.8 78.5 142.9 83.1 145.2 75.6 139.2 71 146.6 71 148.8 63.6"/><polygon class="cls-3" points="40.8 125.9 43 133.3 50.4 133.3 44.4 137.9 46.7 145.4 40.8 140.8 34.8 145.4 37.1 137.9 31.2 133.3 38.5 133.3 40.8 125.9"/><polygon class="cls-3" points="155.7 94.8 157.9 102.3 165 102.3 159.2 106.9 161.5 114.4 155.7 109.8 149.9 114.4 152.1 106.9 146.3 102.3 153.5 102.3 155.7 94.8"/><polygon class="cls-3" points="30.9 94.8 33.1 102.3 40.2 102.3 34.5 106.9 36.7 114.4 30.9 109.8 25.1 114.4 27.3 106.9 21.5 102.3 28.7 102.3 30.9 94.8"/><polygon class="cls-3" points="148.8 126.2 151.1 133.6 158.4 133.6 152.5 138.2 154.8 145.7 148.8 141.1 142.9 145.7 145.2 138.2 139.2 133.6 146.6 133.6 148.8 126.2"/><polygon class="cls-3" points="40.8 63.9 43 71.3 50.4 71.3 44.4 75.9 46.7 83.4 40.8 78.8 34.8 83.4 37.1 75.9 31.2 71.3 38.5 71.3 40.8 63.9"/><polygon class="cls-3" points="124.6 150.5 126.9 157.8 134.4 157.8 128.4 162.4 130.7 169.7 124.6 165.2 118.6 169.7 120.9 162.4 114.9 157.8 122.3 157.8 124.6 150.5"/><polygon class="cls-3" points="62.2 42.6 64.5 49.9 72 49.9 66 54.4 68.3 61.8 62.2 57.2 56.2 61.8 58.5 54.4 52.5 49.9 59.9 49.9 62.2 42.6"/><polygon class="cls-3" points="93.3 157.6 95.6 164.7 103.1 164.7 97 169.1 99.4 176.3 93.3 171.9 87.2 176.3 89.5 169.1 83.5 164.7 91 164.7 93.3 157.6"/></svg>