<svg id="Calque_1" data-name="Calque 1" xmlns="http://www.w3.org/2000/svg" viewBox="0 0 500 500"><title>Kargain_icones</title><path fill="#a5a0a0" d="M479.94,227.62A294.11,294.11,0,0,0,380,145.81a288.34,288.34,0,0,0-126.35-30.49c-1.22,0-6.12,0-7.34,0A288.3,288.3,0,0,0,120,145.81a294.11,294.11,0,0,0-99.92,81.81,36.34,36.34,0,0,0,0,44.76A294.11,294.11,0,0,0,120,354.19a288.3,288.3,0,0,0,126.35,30.49c1.22,0,6.12,0,7.34,0A288.34,288.34,0,0,0,380,354.19a294.11,294.11,0,0,0,99.92-81.81A36.34,36.34,0,0,0,479.94,227.62ZM128.61,336.89a274.84,274.84,0,0,1-93.31-76.4,17.06,17.06,0,0,1,0-21A272.61,272.61,0,0,1,160,149.81a134.52,134.52,0,0,0,0,200.39A274.07,274.07,0,0,1,128.61,336.89ZM250,365.39A115.39,115.39,0,1,1,365.39,250,115.52,115.52,0,0,1,250,365.39Zm214.7-104.9a274.84,274.84,0,0,1-93.31,76.4A270.85,270.85,0,0,1,340,350.16a134.51,134.51,0,0,0,0-200.36,271.71,271.71,0,0,1,31.43,13.31,274.84,274.84,0,0,1,93.31,76.4A17.06,17.06,0,0,1,464.7,260.49Z"/><path fill="#a5a0a0" d="M250,200.62A49.38,49.38,0,1,0,299.38,250,49.43,49.43,0,0,0,250,200.62Zm0,79.43A30.05,30.05,0,1,1,280.05,250,30.08,30.08,0,0,1,250,280.05Z"/></svg>