<svg xmlns="http://www.w3.org/2000/svg" xmlns:xlink="http://www.w3.org/1999/xlink" viewBox="0 0 594.42 529.87"><defs><style>.cls-1{fill:none;}.cls-2{clip-path:url(#clip-path);}.cls-3{clip-path:url(#clip-path-2);}</style><clipPath id="clip-path" transform="translate(0 -0.93)"><rect class="cls-1" x="0.09" width="594.91" height="532.51"/></clipPath><clipPath id="clip-path-2" transform="translate(0 -0.93)"><rect class="cls-1" width="595" height="532.6"/></clipPath></defs><title>home</title><g id="Слой_2" data-name="Слой 2"><g id="Слой_1-2" data-name="Слой 1"><g class="cls-2"><g class="cls-3"><path d="M588.1,210.21,306.33,3.91a15.42,15.42,0,0,0-18.24,0L6.32,210.21a15.44,15.44,0,1,0,18.25,24.92L297.21,35.51,569.85,235.13a15.44,15.44,0,1,0,18.25-24.92Z" transform="translate(0 -0.93)"/></g></g><g class="cls-3"><path d="M513.44,238.63A15.44,15.44,0,0,0,498,254.07V499.91H374.44V365.71a77.23,77.23,0,0,0-154.45,0v134.2H96.43V254.07a15.45,15.45,0,0,0-30.89,0V515.36A15.45,15.45,0,0,0,81,530.8H235.43a15.43,15.43,0,0,0,15.38-14.24,10.78,10.78,0,0,0,.07-1.2V365.72a46.34,46.34,0,1,1,92.67,0V515.36a10.74,10.74,0,0,0,.06,1.19A15.44,15.44,0,0,0,359,530.8H513.44a15.45,15.45,0,0,0,15.45-15.44V254.07A15.46,15.46,0,0,0,513.44,238.63Z" transform="translate(0 -0.93)"/></g></g></g></svg>