<svg id="Calque_1" data-name="Calque 1" xmlns="http://www.w3.org/2000/svg" viewBox="0 0 500 500"><title>Kargain_icones</title><path d="M90,215.37a79.85,79.85,0,1,0,76.12,103.8h30.73a31.68,31.68,0,0,0,20.9,8h63.88A31.94,31.94,0,0,0,313,301.54h.09l43-110.55,14.74,34.38a80.17,80.17,0,1,0,14.66-6.32L377,199.35a1.44,1.44,0,0,0,.46.05h8a8,8,0,0,0,8-8v-47.9a8,8,0,0,0-8-8h-8a31.76,31.76,0,0,0-23.38,10.38l-9.2-21.51-14.68,6.29L335,141.86a39.56,39.56,0,0,0-21.4-6.34H281.66a63.73,63.73,0,0,0-49.78,23.95H166.53a69.77,69.77,0,0,1-22.06-3.58,85.77,85.77,0,0,0-27.15-4.4H114a23.89,23.89,0,0,0-23.79,22.39l-.8-1.55a24,24,0,0,0-22.52-15.79H62.43v16h4.46A8,8,0,0,1,74.46,178a7.85,7.85,0,0,0,.43,1l2.22,4.42h-11a8,8,0,0,0,0,16h51.25A69.57,69.57,0,0,1,139.44,203a84.37,84.37,0,0,0,8.42,2.28l30.8,66H166.14A79.31,79.31,0,0,0,90,215.37Zm287.44,79.84A31.82,31.82,0,0,1,390,270.07l12.13,28.29,14.67-6.29-12.13-28.31a31.87,31.87,0,1,1-27.15,31.45Zm-31.93,0a63.88,63.88,0,0,1,31.59-55L383.52,255a47.93,47.93,0,1,0,14.67-6.3l-6.38-14.83a64.08,64.08,0,1,1-46.27,61.35Zm16.35-131.15a16,16,0,0,1,15.58-12.57v31.94a15.81,15.81,0,0,1-8.31-2.4ZM166.83,207.38H215l-4.8,16H174.81Zm55.65-31.94a63.47,63.47,0,0,0-4.15,16h-51.8a69.89,69.89,0,0,1-22.08-3.58,85.84,85.84,0,0,0-21.33-4.17,6.69,6.69,0,0,0-1.15-.23h-8a8,8,0,1,1,0-16h3.35a69.48,69.48,0,0,1,22,3.59,85.8,85.8,0,0,0,27.15,4.39Zm27.24,31.94v14.37a17.23,17.23,0,0,0,.29,2.86,17.37,17.37,0,0,0-10.11,9.78l-11.56,28.88H217.78c-1,0-1.95.21-2.93.3l8.83-29.43c.07-.19.2-.34.26-.53l7.78-26.23Zm5,33a1.59,1.59,0,0,1,1.48-1h27.27a1.67,1.67,0,0,1,.59.11,1.61,1.61,0,0,1,.9,2.08l-8.72,21.76H245.54Zm82.82-56.9a8,8,0,0,1-8,8h-93l5.81-19.07a47.71,47.71,0,0,1,39.3-20.85H313.6a24,24,0,0,1,23.95,23.95v8ZM319.07,242a15.91,15.91,0,0,0-8.67-2.68h-9.46a17.49,17.49,0,0,0-17.46-16H267.29a1.59,1.59,0,0,1-1.6-1.6V207.38h63.88a22.65,22.65,0,0,0,3.07-.31L319.07,242Zm-15.65,29.94a32.23,32.23,0,0,0-10.76-6.61l4-10H310.4Zm-21.76,39.25a16,16,0,1,1,16-16,16,16,0,0,1-16,16Zm-79.47-12.6a15.38,15.38,0,0,1,0-6.75c.05-.24.15-.47.22-.71a16.48,16.48,0,0,1,3.56-6.54,1.63,1.63,0,0,0,.11-.17,15.9,15.9,0,0,1,11.7-5.17h36.38a30.94,30.94,0,0,0,0,31.94H217.78a15.91,15.91,0,0,1-11.7-5.18,1,1,0,0,0-.11-.17,16.45,16.45,0,0,1-3.56-6.55c-.07-.23-.17-.46-.22-.7ZM196,270.77l-14.67-31.45h24.1ZM90,303.2v-16h96.05l.51,1h0c-.1.44-.15.89-.23,1.35a27.65,27.65,0,0,0,0,11.17c.09.56.18,1.08.3,1.6.07.28.1.57.17.85Zm-8-31.94a8,8,0,0,0-8,8v31.94a8,8,0,0,0,8,8h29a30.08,30.08,0,0,1-4.18,3.09c-.46.29-.94.53-1.42.79a31,31,0,0,1-3.27,1.61c-.56.24-1.14.45-1.72.65a32.85,32.85,0,0,1-3.52,1c-.52.12-1,.27-1.6.36a32,32,0,1,1,.06-62.87c.52.09,1,.24,1.59.36a33,33,0,0,1,3.53,1c.58.2,1.15.41,1.71.65a30,30,0,0,1,3.27,1.6c.48.27,1,.51,1.43.8a30.91,30.91,0,0,1,4.16,3.06Zm8,87.83a63.88,63.88,0,1,1,59.19-87.81H131.43c-.15-.3-.35-.53-.51-.8-.47-.77-1-1.49-1.5-2.24-.75-1.08-1.54-2.16-2.35-3.19-.58-.71-1.2-1.39-1.82-2.07-.86-1-1.75-1.87-2.69-2.74-.68-.63-1.38-1.24-2.09-1.84a35.16,35.16,0,0,0-3-2.29c-.76-.54-1.51-1.06-2.31-1.55-1.08-.67-2.2-1.28-3.34-1.86-.8-.42-1.6-.85-2.39-1.22-1.23-.54-2.48-1-3.74-1.42-.8-.28-1.6-.61-2.4-.84-1.42-.41-2.87-.7-4.33-1-.72-.14-1.43-.33-2.16-.44a47.91,47.91,0,1,0,0,94.83c.73-.11,1.44-.31,2.17-.44,1.45-.28,2.9-.56,4.31-1,.86-.24,1.65-.56,2.45-.84,1.27-.44,2.52-.89,3.73-1.43.8-.36,1.6-.8,2.4-1.21,1.14-.59,2.26-1.19,3.35-1.86.79-.5,1.54-1,2.3-1.55,1-.7,2-1.5,3-2.3.71-.59,1.42-1.2,2.09-1.84,1-.87,1.83-1.79,2.7-2.73.62-.68,1.23-1.36,1.81-2.08a39.11,39.11,0,0,0,2.35-3.19c.52-.74,1-1.44,1.5-2.23.16-.3.36-.53.52-.8h17.74A63.43,63.43,0,0,1,90,359.09Zm0,0"/></svg>