<svg id="Calque_1" data-name="Calque 1" xmlns="http://www.w3.org/2000/svg" viewBox="0 0 500 500"><title>Kargain_icones</title><path d="M386.13,330.1A10.86,10.86,0,1,0,397,341,10.85,10.85,0,0,0,386.13,330.1Z"/><path d="M137.88,330.1A10.86,10.86,0,1,0,148.74,341,10.85,10.85,0,0,0,137.88,330.1Z"/><path d="M464.49,259.23l-6.18-8.79L441.38,226.7l-43.3-62a8,8,0,0,0-6.49-3.4h-67v-44.4a7.92,7.92,0,0,0-7.91-7.92H42a7.92,7.92,0,0,0-7.91,7.92V341.07A7.91,7.91,0,0,0,42,349h50.1a47.49,47.49,0,0,0,94.35,0H340a47.49,47.49,0,0,0,94.34,0h23.75a7.91,7.91,0,0,0,7.83-8.15V263.74A7.88,7.88,0,0,0,464.49,259.23ZM139.43,372.72v.4a32,32,0,0,1-31.66-32.05,31.66,31.66,0,1,1,31.66,31.65ZM308.72,145H251.58a7.92,7.92,0,0,0,0,15.84h57.14v172.3H186.6a47.49,47.49,0,0,0-94.35,0H50.07V282.5H265a7.92,7.92,0,0,0,0-15.83H50.07V124.83H308.72Zm97.91,59.45,30.16,42.74H359.14V204.46ZM387.32,372.72v.4a32.05,32.05,0,0,1-31.66-32.05,31.66,31.66,0,1,1,31.66,31.65Zm62.84-39.57H434.33a47.49,47.49,0,0,0-94.34,0H324.16v-156h63.31l8.08,11.32H351.23a7.92,7.92,0,0,0-7.92,7.92V255a7.92,7.92,0,0,0,7.92,7.92h96.56l2.37,3.4Z"/></svg>