<svg id="Calque_1" data-name="Calque 1" xmlns="http://www.w3.org/2000/svg" viewBox="0 0 500 500"><title>Kargain_icones</title><path d="M484.58,205.12,257.36,38.75a12.44,12.44,0,0,0-14.71,0L15.41,205.12a12.46,12.46,0,0,0,14.72,20.1L250,64.23l219.87,161a12.45,12.45,0,1,0,14.71-20.1Z"/><path d="M424.37,228a12.46,12.46,0,0,0-12.45,12.45V438.74H312.28V330.52a62.28,62.28,0,1,0-124.56,0V438.75H88.08V240.49a12.46,12.46,0,0,0-24.91,0V451.2a12.46,12.46,0,0,0,12.46,12.46H200.18a12.45,12.45,0,0,0,12.4-11.49,9.35,9.35,0,0,0,0-1V330.53a37.37,37.37,0,0,1,74.74,0V451.2a9.15,9.15,0,0,0,.05,1,12.45,12.45,0,0,0,12.41,11.5H424.37a12.46,12.46,0,0,0,12.46-12.46V240.49A12.46,12.46,0,0,0,424.37,228Z"/></svg>