<svg id="Calque_1" data-name="Calque 1" xmlns="http://www.w3.org/2000/svg" viewBox="0 0 500 500"><title>Kargain_icones</title><path d="M248.34,267.79h3c27.8-.48,50.28-10.25,66.88-28.93C354.77,197.69,348.7,127.11,348,120.38c-2.37-50.56-26.27-74.75-46-86-14.7-8.44-31.87-13-51-13.37h-1.62c-10.52,0-31.21,1.71-51,13s-44.2,35.48-46.57,86.42c-.67,6.73-6.74,77.31,29.78,118.48C198.06,257.54,220.55,267.31,248.34,267.79Zm-71.24-145c0-.28.1-.57.1-.76,3.12-68,51.41-75.32,72.09-75.32h1.14c25.61.57,69.15,11,72.09,75.32a1.94,1.94,0,0,0,.09.76c.1.66,6.73,65.17-23.43,99.13-11.95,13.47-27.88,20.1-48.85,20.29h-1c-20.87-.19-36.9-6.82-48.75-20.29C170.56,188.11,177,123.32,177.1,122.75Z"/><path d="M444.79,384.84v-.28c0-.76-.1-1.52-.1-2.38-.57-18.78-1.8-62.7-43-76.73-.28-.1-.66-.19-1-.29-42.78-10.91-78.35-35.57-78.72-35.86a12.81,12.81,0,0,0-14.71,21c1.61,1.13,39.36,27.41,86.6,39.55,22.11,7.88,24.57,31.49,25.24,53.12a19.92,19.92,0,0,0,.09,2.37c.1,8.54-.47,21.73-2,29.31-15.37,8.73-75.6,38.9-167.23,38.9-91.26,0-151.87-30.26-167.33-39-1.52-7.59-2.18-20.78-2-29.31,0-.76.1-1.52.1-2.37.66-21.63,3.13-45.25,25.24-53.13,47.24-12.13,85-38.5,86.6-39.55a12.8,12.8,0,1,0-14.71-21c-.38.29-35.76,24.94-78.73,35.86-.38.09-.66.19-1,.28-41.16,14.13-42.39,58-43,76.74a18.09,18.09,0,0,1-.1,2.37v.29c-.09,4.93-.19,30.25,4.84,43a12.14,12.14,0,0,0,4.93,6C67.83,435.59,136,479,250.14,479S432.46,435.5,435.3,433.69a12.65,12.65,0,0,0,4.94-6C445,415.1,444.88,389.77,444.79,384.84Z"/></svg>