<svg id="Calque_1" data-name="Calque 1" xmlns="http://www.w3.org/2000/svg" viewBox="0 0 500 500"><title>Kargain_icones</title><path d="M472.15,230.73a59.79,59.79,0,0,0-36.6-20.07l-58.63-8.55-81.74-41.56a126.84,126.84,0,0,0-57.27-13.73H182.62a125.84,125.84,0,0,0-47,9.07l-90.2,36.16A50.89,50.89,0,0,0,13.28,239.5v64.95A9.69,9.69,0,0,0,23,314.13H67.11a49.91,49.91,0,0,0,97.43,0H338.06a49.91,49.91,0,0,0,97.44,0H477a9.69,9.69,0,0,0,9.68-9.68v-34.6A59.81,59.81,0,0,0,472.15,230.73ZM464.5,255a35.11,35.11,0,0,1-30.25-24.95A40.74,40.74,0,0,1,464.5,255ZM248.19,166.7a107.48,107.48,0,0,1,38.22,11.11l47.12,24H248.19Zm-70.83-.39c1.74-.09,3.49-.13,5.26-.13h46.2v35.6h-78.7Zm-34.57,7.55c2-.79,4-1.53,6-2.2L125.7,201.78H73.16ZM32.64,239.51a31.8,31.8,0,0,1,5.83-18.37H49.83v12.61a12.78,12.78,0,0,1-12.76,12.76H32.64Zm83.18,94.3a30.54,30.54,0,1,1,30.54-30.53A30.53,30.53,0,0,1,115.82,333.81Zm271,0a30.54,30.54,0,1,1,30.54-30.53A30.53,30.53,0,0,1,386.79,333.81Zm80.56-39H435.94a49.89,49.89,0,0,0-98.32,0H165a49.88,49.88,0,0,0-98.31,0h-34v-28.9h4.43a32.16,32.16,0,0,0,32.12-32.13v-12.6h304l40.71,5.93a54.45,54.45,0,0,0,53.44,47.48Z"/><path d="M282.59,248.27H218.37a9.69,9.69,0,0,0,0,19.37h64.22a9.69,9.69,0,0,0,0-19.37Z"/><path d="M386.79,290.44a12.84,12.84,0,1,0,12.83,12.84A12.84,12.84,0,0,0,386.79,290.44Z"/><path d="M115.82,290.44a12.84,12.84,0,1,0,12.84,12.84A12.83,12.83,0,0,0,115.82,290.44Z"/></svg>