<svg id="Calque_1" data-name="Calque 1" xmlns="http://www.w3.org/2000/svg" viewBox="0 0 500 500"><title>Kargain_icones</title><path d="M377.27,312a77.89,77.89,0,0,0-61.65,30.36L196,275.58a78.15,78.15,0,0,0,4.34-25.67A76.4,76.4,0,0,0,196,224.15l119.49-66.71a77.74,77.74,0,1,0-16.09-47.27,76.06,76.06,0,0,0,4.43,25.76l-119.4,66.7a77.75,77.75,0,1,0,.18,94.46l119.49,66.8A77.79,77.79,0,1,0,377.27,312Zm0-255.17a53.42,53.42,0,1,1-53.42,53.42,53.47,53.47,0,0,1,53.42-53.42ZM122.73,303.33a53.42,53.42,0,1,1,53.42-53.42,53.47,53.47,0,0,1-53.42,53.42ZM377.27,443.16a53.42,53.42,0,1,1,53.42-53.42,53.47,53.47,0,0,1-53.42,53.42Zm0,0"/></svg>