<svg id="Calque_1" data-name="Calque 1" xmlns="http://www.w3.org/2000/svg" viewBox="0 0 500 500"><title>Kargain_icones</title><path d="M250,15.91C159.2,15.91,85.36,89.75,85.36,180.5a164.24,164.24,0,0,0,24.57,86.56L240.59,477.61a13.71,13.71,0,0,0,11.65,6.48h.11A13.71,13.71,0,0,0,264,477.43l127.32-212.6a164.37,164.37,0,0,0,23.22-84.33C414.55,89.75,340.71,15.91,250,15.91ZM367.79,250.75,252,444,133.24,252.6a137,137,0,0,1-20.63-72.1c0-75.63,61.71-137.34,137.34-137.34S387.21,104.87,387.21,180.5A137.07,137.07,0,0,1,367.79,250.75Z"/><path d="M250,98.21a82.3,82.3,0,1,0,82.3,82.29A82.38,82.38,0,0,0,250,98.21Zm0,137.34a55,55,0,1,1,55-55.05A55.08,55.08,0,0,1,250,235.55Z"/></svg>