<svg id="Calque_1" data-name="Calque 1" xmlns="http://www.w3.org/2000/svg" viewBox="0 0 500 500"><title>Kargain_icones</title><path d="M486.36,194.74a13.23,13.23,0,0,0-10.61-9l-147.88-21L261.33,31a13.12,13.12,0,0,0-23.55.1L172.11,165.26l-147.88,22a13.22,13.22,0,0,0-10.6,8.95A13,13,0,0,0,17,209.62l107.3,104-24.8,147.3a13.19,13.19,0,0,0,12.94,15.37,12.52,12.52,0,0,0,6.13-1.55l132-69.95L383,474a13.5,13.5,0,0,0,6,1.46,13.2,13.2,0,0,0,13.13-13.13,10,10,0,0,0-.39-3L376.23,312.85,482.85,208.27a12.88,12.88,0,0,0,3.51-13.53ZM353.07,298.94a13,13,0,0,0-3.7,11.67l22.28,127.74-115-60a13.28,13.28,0,0,0-12.26,0L129.79,439l21.5-127.93a13.14,13.14,0,0,0-3.79-11.58l-93-90.29,128.33-19.06a13,13,0,0,0,9.82-7.2l57-116.46,57.79,116.16a13.36,13.36,0,0,0,9.92,7.21l128.43,18.29Zm0,0"/></svg>