<svg id="Calque_1" data-name="Calque 1" xmlns="http://www.w3.org/2000/svg" viewBox="0 0 500 500"><title>Kargain_icones</title><path d="M479.94,227.62A294.11,294.11,0,0,0,380,145.81a288.34,288.34,0,0,0-126.35-30.49c-1.22,0-6.12,0-7.34,0a288.78,288.78,0,0,0-97.57,18l-58-59.08A9.5,9.5,0,1,0,77.2,87.56l52.6,53.58q-4.94,2.24-9.82,4.67a294.11,294.11,0,0,0-99.92,81.81,36.34,36.34,0,0,0,0,44.76A294.11,294.11,0,0,0,120,354.19a288.3,288.3,0,0,0,126.35,30.49c1.22,0,6.12,0,7.34,0a288.78,288.78,0,0,0,97.57-18l58,59.08a9.5,9.5,0,1,0,13.56-13.32l-52.6-53.58q4.94-2.24,9.82-4.67a294.11,294.11,0,0,0,99.92-81.81A36.34,36.34,0,0,0,479.94,227.62ZM250,134.61a115.34,115.34,0,0,1,87.31,190.76l-46.6-47.46a49.35,49.35,0,0,0-67.86-69.13l-46.6-47.46A114.87,114.87,0,0,1,250,134.61ZM223.26,236.32,263.19,277a30,30,0,0,1-39.93-40.67ZM236.81,223a30,30,0,0,1,39.93,40.67ZM128.61,336.89a274.84,274.84,0,0,1-93.31-76.4,17.06,17.06,0,0,1,0-21,274.84,274.84,0,0,1,93.31-76.4q7.77-3.87,15.68-7.22l4.83,4.92A134.48,134.48,0,0,0,160,350.2,274.07,274.07,0,0,1,128.61,336.89ZM250,365.39a115.34,115.34,0,0,1-87.31-190.76l46.6,47.46a49.35,49.35,0,0,0,67.86,69.13l46.6,47.46A114.87,114.87,0,0,1,250,365.39Zm214.7-104.9a274.84,274.84,0,0,1-93.31,76.4q-7.77,3.87-15.69,7.21l-4.82-4.91A134.47,134.47,0,0,0,340,149.8a271.71,271.71,0,0,1,31.43,13.31,274.84,274.84,0,0,1,93.31,76.4A17.06,17.06,0,0,1,464.7,260.49Z"/></svg>