<svg id="Calque_1" data-name="Calque 1" xmlns="http://www.w3.org/2000/svg" viewBox="0 0 500 500"><title>Kargain_icones</title><path d="M409.94,90A226,226,0,0,0,90,90c-82.44,82.45-88.41,214.17-15,303.43C64.91,414.23,53,428.06,39.42,434.7a21.1,21.1,0,0,0,6.06,39.79,107.43,107.43,0,0,0,16,1.24c27.77,0,57-9.57,81.31-26.35A226.3,226.3,0,0,0,409.94,90Zm-18.1,301.82A200.75,200.75,0,0,1,148.4,423a12.74,12.74,0,0,0-14.31.85c-29,22.46-58.19,25.78-71,26.06,15.25-11.37,28.05-29,38.76-53.54a12.88,12.88,0,0,0-2.18-13.64c-70.13-79.23-66.43-200,8.43-274.82a200.65,200.65,0,0,1,283.72,0C470.12,186.32,470.12,313.68,391.84,391.86Z"/><path d="M344.75,175.33H155.22a12.8,12.8,0,0,0,0,25.59H344.75a12.8,12.8,0,0,0,0-25.59Z"/><path d="M344.75,237.21H155.22a12.79,12.79,0,1,0,0,25.58H344.75a12.79,12.79,0,1,0,0-25.58Z"/><path d="M344.75,299.09H155.22a12.79,12.79,0,1,0,0,25.58H344.75a12.79,12.79,0,0,0,0-25.58Z"/></svg>