<svg xmlns="http://www.w3.org/2000/svg" viewBox="0 0 341 92.78"><defs><style>.cls-1{fill:#404449;}</style></defs><title>logo</title><g id="Слой_2" data-name="Слой 2"><g id="Calque_1" data-name="Calque 1"><path class="cls-1" d="M55.42,35a7.41,7.41,0,0,0-3.84.6l.11-1a7.51,7.51,0,0,0-6.64-8.27,8.08,8.08,0,0,0-1.3,0l12-11.11,0,0,0,0a8.41,8.41,0,0,0,2.74-6,9.05,9.05,0,0,0-2.17-5.89A8,8,0,0,0,50.16.11H50a9.58,9.58,0,0,0-6.77,3L23.5,22l.19-12.81A8.8,8.8,0,0,0,14.8,0h-.16A9.21,9.21,0,0,0,8.2,2.47,8.81,8.81,0,0,0,5.41,8.88L4.8,50.45l.54-.08a10.34,10.34,0,0,0-5.28,8,11.51,11.51,0,0,0,0,1.86L.65,69A24.64,24.64,0,0,0,22.57,91.72l8.25.9A25.73,25.73,0,0,0,59.16,69.86l2.9-26.64A7.51,7.51,0,0,0,55.42,35ZM44.64,30A3.75,3.75,0,0,1,48,34.14l-.81,7.45L45.93,52.78A3.75,3.75,0,1,1,38.48,52l1.84-16.91,1.12-3.78v0A3.74,3.74,0,0,1,44.64,30ZM9.41,8.94a4.8,4.8,0,0,1,1.53-3.56A5.19,5.19,0,0,1,14.64,4h.1a4.8,4.8,0,0,1,5,5.09l-.33,22.36L46,5.94a5.7,5.7,0,0,1,4-1.83h.07a4,4,0,0,1,3.18,1.61A5,5,0,0,1,54.55,9,4.45,4.45,0,0,1,53,12.21L34.85,29.05,37,31.93a7.87,7.87,0,0,0-.18,1L35.36,46a2.06,2.06,0,0,0-.43,0l-.68.08L27.1,36.33,19.18,43.7l-.06,4.21-10,1.23-.29,0ZM29.69,46.61l-6.57.81,0-2,3.39-3.15ZM55.43,69.45a22,22,0,0,1-24.2,19.44L23,88A20.94,20.94,0,0,1,4.39,68.69l-.63-8.77a6.88,6.88,0,0,1,0-1.2,6.6,6.6,0,0,1,5.77-5.86l22.68-2.79,1.27,1.72a7.88,7.88,0,0,1-5.9,6.34l-8.35,2a4.77,4.77,0,0,0-3.34,6.29l1.79,4.82A1.88,1.88,0,0,0,21.23,70l-1.79-4.82a1,1,0,0,1,0-.82,1,1,0,0,1,.66-.52l8.36-2a11.52,11.52,0,0,0,7.28-5.43l0-.05a7.49,7.49,0,0,0,10.56,2.3,7.5,7.5,0,0,0,6,4.32,7.41,7.41,0,0,0,3.84-.6Zm2.9-26.64-1.42,13a3.75,3.75,0,1,1-7.45-.81l.2-1.87h0l.81-7.45h0L50.88,42a3.75,3.75,0,0,1,7.45.81Z"/><path class="cls-1" d="M156.77,18.17a4.31,4.31,0,0,1,1.74,3.4,5.24,5.24,0,0,1-1.36,3.95,4.48,4.48,0,0,1-3.23,1.32,8.64,8.64,0,0,1-2.89-.59l-1.15-.34a6.53,6.53,0,0,0-1.91-.26A7.54,7.54,0,0,0,143.72,27a10,10,0,0,0-3.36,4.12A15.16,15.16,0,0,0,139,37.72V57.87a5.09,5.09,0,0,1-1.44,3.69,5.23,5.23,0,0,1-7.31,0,5.1,5.1,0,0,1-1.45-3.69V22.76a5.12,5.12,0,0,1,1.45-3.7,5.25,5.25,0,0,1,7.31,0,5.12,5.12,0,0,1,1.44,3.7v1.11a12.91,12.91,0,0,1,5.62-5.32,17.19,17.19,0,0,1,7.81-1.83A6.54,6.54,0,0,1,156.77,18.17Z"/><path class="cls-1" d="M286.86,61.56a5.23,5.23,0,0,1-7.31,0,5.06,5.06,0,0,1-1.45-3.69V22.76a5.08,5.08,0,0,1,1.45-3.7,5.25,5.25,0,0,1,7.31,0,5.12,5.12,0,0,1,1.44,3.7V57.87A5.09,5.09,0,0,1,286.86,61.56Z"/><path class="cls-1" d="M337.69,21.87Q341,27,341,36.1V57.87a5.09,5.09,0,0,1-1.44,3.69,5.23,5.23,0,0,1-7.31,0,5.06,5.06,0,0,1-1.45-3.69V36.1a12.28,12.28,0,0,0-1.95-7.35c-1.31-1.78-3.54-2.67-6.72-2.67a10.35,10.35,0,0,0-7.73,2.84,9.82,9.82,0,0,0-2.81,7.18V57.87a5.09,5.09,0,0,1-1.44,3.69,5.23,5.23,0,0,1-7.31,0,5.06,5.06,0,0,1-1.45-3.69V22.76a5.08,5.08,0,0,1,1.45-3.7,5.25,5.25,0,0,1,7.31,0,5.12,5.12,0,0,1,1.44,3.7v1.45a20.62,20.62,0,0,1,6-5.28,15.54,15.54,0,0,1,8.11-2.21Q334.37,16.72,337.69,21.87Z"/><path class="cls-1" d="M113.72,18.17a5,5,0,0,0-3.66-1.45,4.88,4.88,0,0,0-3.65,1.49,5,5,0,0,0-1.2,2.07V37.8a19.13,19.13,0,0,1,.18,2.55,15,15,0,0,1-3.49,10.16,12,12,0,0,1-18,0,15.14,15.14,0,0,1-3.44-10.16A15.1,15.1,0,0,1,84,30.16a11.16,11.16,0,0,1,8.92-4.08c.32,0,.63,0,.94,0V16.9a19.5,19.5,0,0,0-2.55-.18,19,19,0,0,0-10.42,3,21,21,0,0,0-7.43,8.42,26.62,26.62,0,0,0-2.72,12.19,26.15,26.15,0,0,0,2.76,12.16A21.14,21.14,0,0,0,81,60.88a19.37,19.37,0,0,0,10.63,3,17.3,17.3,0,0,0,7.6-1.74A17.5,17.5,0,0,0,105,58a5.37,5.37,0,0,0,1.49,3.66,4.81,4.81,0,0,0,3.61,1.44,4.88,4.88,0,0,0,3.66-1.49,5.09,5.09,0,0,0,1.44-3.69v-36A5.06,5.06,0,0,0,113.72,18.17Z"/><path class="cls-1" d="M208.41,18.17a5,5,0,0,0-3.66-1.45,4.91,4.91,0,0,0-3.66,1.49,5.12,5.12,0,0,0-1.44,3.7v.93l-.11-.1V36a17,17,0,0,1,.54,4.37,14.67,14.67,0,0,1-3.62,10.16,11.92,11.92,0,0,1-9.3,4,11.8,11.8,0,0,1-9.27-4,14.77,14.77,0,0,1-3.57-10.16,14.9,14.9,0,0,1,3.57-10.19,11.71,11.71,0,0,1,9.27-4.08c.34,0,.67,0,1,0v-9.2a18.78,18.78,0,0,0-2.62-.2,19.67,19.67,0,0,0-10.67,3,21,21,0,0,0-7.56,8.42,26.27,26.27,0,0,0-2.77,12.19,25.8,25.8,0,0,0,2.81,12.16A21.1,21.1,0,0,0,175,60.88a20.16,20.16,0,0,0,10.84,3A16.38,16.38,0,0,0,194,61.78,17,17,0,0,0,199.65,57V61.1a8.61,8.61,0,0,1-3.1,7.09q-3.11,2.5-9.39,2.51a19.83,19.83,0,0,1-7-1.49c-2.58-1-4-1.51-4.21-1.57a5,5,0,0,0-1.61-.25,4.23,4.23,0,0,0-2.68,1,5.26,5.26,0,0,0-1.74,2.85,4.37,4.37,0,0,0-.26,1.36q0,3.15,4.17,4.93a31,31,0,0,0,6.33,1.7,39.62,39.62,0,0,0,7,.85q9.85,0,16.27-5t6.42-15.35V21.91A5.06,5.06,0,0,0,208.41,18.17Z"/><path class="cls-1" d="M263.57,18.17a5,5,0,0,0-3.65-1.45,4.94,4.94,0,0,0-5,4.46V36.69a18.7,18.7,0,0,1,.36,3.66,15,15,0,0,1-3.49,10.16,11.34,11.34,0,0,1-9,4,11.22,11.22,0,0,1-9-4,15.09,15.09,0,0,1-3.45-10.16,15.15,15.15,0,0,1,3.49-10.19,11.18,11.18,0,0,1,8.93-4.08c.25,0,.5,0,.74,0V16.87a20.34,20.34,0,0,0-2.36-.15,18.92,18.92,0,0,0-10.41,3,20.9,20.9,0,0,0-7.44,8.42,26.75,26.75,0,0,0-2.72,12.19,26.15,26.15,0,0,0,2.76,12.16,21.14,21.14,0,0,0,7.52,8.37,19.4,19.4,0,0,0,10.63,3A18.42,18.42,0,0,0,254.82,58a5.36,5.36,0,0,0,1.48,3.66,5.24,5.24,0,0,0,7.27,0A5.09,5.09,0,0,0,265,57.87v-36A5.06,5.06,0,0,0,263.57,18.17Z"/></g></g></svg>