<svg xmlns="http://www.w3.org/2000/svg" xmlns:xlink="http://www.w3.org/1999/xlink" viewBox="0 0 594.42 594.42"><defs><style>.cls-1{fill:none;}.cls-2{clip-path:url(#clip-path);}.cls-3{clip-path:url(#clip-path-2);}</style><clipPath id="clip-path" transform="translate(0 -0.58)"><rect class="cls-1" x="0.09" width="594.91" height="596.45"/></clipPath><clipPath id="clip-path-2" transform="translate(0 -0.58)"><rect class="cls-1" width="595" height="596.45"/></clipPath></defs><title>ring</title><g id="Слой_2" data-name="Слой 2"><g id="Слой_1-2" data-name="Слой 1"><g class="cls-2"><g class="cls-3"><path d="M29.78,446.39c89.15-89.16,89.15-148.6,89.15-237.76,0-98.48,79.82-178.33,178.28-178.33s178.29,79.85,178.3,178.33c0,89.16,0,148.6,89.14,237.76ZM297.22,565.28A74.31,74.31,0,0,1,222.93,491l1.49-14.87H370L371.52,491A74.32,74.32,0,0,1,297.22,565.28Zm288.43-139.9c-69.91-69.93-80.43-105-80.43-216.75,0-114.91-93.12-208-208-208s-208,93.14-208,208.05c0,60.24-1.61,82.73-9.9,110.34C69,353.37,47.82,386.3,8.76,425.38c-18.71,18.73-5.46,50.73,21,50.73H194.7L193.2,491a104,104,0,1,0,208,0l-1.5-14.87H564.64C591.12,476.11,604.38,444.11,585.65,425.38Z" transform="translate(0 -0.58)"/></g></g></g></g></svg>