<svg id="Calque_1" data-name="Calque 1" xmlns="http://www.w3.org/2000/svg" viewBox="0 0 500 500"><title>Kargain_icones</title><path fill="#569ffc" d="M486.36,194.74a13.23,13.23,0,0,0-10.61-9l-147.88-21L261.33,31a13.12,13.12,0,0,0-23.55.1L172.11,165.26l-147.88,22a13.22,13.22,0,0,0-10.6,8.95A13,13,0,0,0,17,209.62l107.3,104-24.8,147.3a13.19,13.19,0,0,0,12.94,15.37,12.52,12.52,0,0,0,6.13-1.55l132-69.95L383,474a13.5,13.5,0,0,0,6,1.46,13.2,13.2,0,0,0,13.13-13.13,10,10,0,0,0-.39-3L376.23,312.85,482.85,208.27A12.88,12.88,0,0,0,486.36,194.74Z"/></svg>