<svg xmlns="http://www.w3.org/2000/svg" viewBox="0 0 328.61 386.32"><title>user</title><g id="Слой_2" data-name="Слой 2"><g id="Слой_1-2" data-name="Слой 1"><path d="M102.82,85.84c0-.24.08-.48.08-.64,2.64-57.36,43.36-63.52,60.8-63.52h1c21.6.48,58.32,9.28,60.8,63.52a1.56,1.56,0,0,0,.08.64c.08.56,5.68,55-19.76,83.6-10.08,11.36-23.52,17-41.2,17.12h-.8c-17.6-.16-31.12-5.76-41.12-17.12C97.3,141,102.74,86.32,102.82,85.84ZM162.9,208.16h2.56c23.44-.4,42.4-8.64,56.4-24.4C252.66,149,247.54,89.52,247,83.84c-2-42.64-22.16-63-38.8-72.56-12.4-7.12-26.88-11-43-11.28h-1.36c-8.88,0-26.32,1.44-43,11S83.46,40.88,81.46,83.84c-.56,5.68-5.68,65.2,25.12,99.92C120.5,199.52,139.46,207.76,162.9,208.16Z"/><path d="M328.58,306.88v-.24c0-.64-.08-1.28-.08-2-.48-15.84-1.52-52.88-36.24-64.72l-.8-.24c-36.08-9.2-66.08-30-66.4-30.24a10.8,10.8,0,0,0-12.4,17.68c1.36,1,33.2,23.12,73,33.36,18.64,6.64,20.72,26.56,21.28,44.8a16.07,16.07,0,0,0,.08,2c.08,7.2-.4,18.32-1.68,24.72-13,7.36-63.76,32.8-141,32.8-77,0-128.08-25.52-141.12-32.88-1.28-6.4-1.84-17.52-1.68-24.72,0-.64.08-1.28.08-2C22.18,287,24.26,267,42.9,260.4c39.84-10.24,71.68-32.48,73-33.36a10.8,10.8,0,1,0-12.4-17.68c-.32.24-30.16,21-66.4,30.24-.32.08-.56.16-.8.24C1.62,251.76.58,288.8.1,304.56a16.07,16.07,0,0,1-.08,2v.24C-.06,311-.14,332.32,4.1,343a10.26,10.26,0,0,0,4.16,5c2.4,1.6,59.92,38.24,156.16,38.24s153.76-36.72,156.16-38.24a10.71,10.71,0,0,0,4.16-5C328.74,332.4,328.66,311,328.58,306.88Z"/></g></g></svg>